<?xml version="1.0" encoding="UTF-8"?>
<svg id="_レイヤー_2" data-name="レイヤー 2" xmlns="http://www.w3.org/2000/svg" xmlns:xlink="http://www.w3.org/1999/xlink" viewBox="0 0 455.14 271.67">
  <defs>
    <style>
      .cls-1 {
        fill: #000;
      }

      .cls-1, .cls-2 {
        stroke-width: 0px;
      }

      .cls-2, .cls-3 {
        fill: none;
      }

      .cls-3 {
        stroke-width: 17.01px;
      }

      .cls-3, .cls-4 {
        stroke: #000;
        stroke-miterlimit: 10;
      }

      .cls-5 {
        clip-path: url(#clippath);
      }

      .cls-4 {
        fill: #fff;
        stroke-width: 5.67px;
      }
    </style>
    <clipPath id="clippath">
      <circle class="cls-2" cx="217.35" cy="135.83" r="133"/>
    </clipPath>
  </defs>
  <g id="_レイヤー_1-2" data-name="レイヤー 1">
    <circle class="cls-4" cx="217.35" cy="135.83" r="133"/>
    <g class="cls-5">
      <path class="cls-1" d="M.28,46.58c19.98-.91,40.39-.55,60.11,3.15,22.94,4.25,44.41,13.35,67.4,15.72,10.58,1.27,21.29,1.57,31.94,2.09,14.25.42,28.61.55,42.8-.74,5.83-.61,11.7-1.71,17.26-3.57,9.36-3.27,17.83-8.4,27.29-11.84,1.14-.36,4.44-1.41,5.57-1.77,1.77-.48,4.82-1.17,6.61-1.62,1.8-.31,4.86-.8,6.67-1.11,23.02-3.34,45.93,1.44,66.96,10.89,8.96,4.01,20.87,9.7,30.17,12.73,7.62,2.63,15.62,4.85,23.68,3.79,14.42-1.75,26.1-11.92,39.35-17.36,9.12-3.97,19.16-5.89,29.06-5.44-4.91.34-9.74,1.23-14.4,2.59-4.66,1.37-9.12,3.26-13.37,5.54-12.9,6.77-24.47,18.26-39.66,20.98-21.37,4.03-48.3-11.09-68.61-17.56-18.8-6.36-38.88-6.73-58.5-5.88-1.65.21-4.43.51-6.06.74-7.67,1.33-14.57,4.11-21.61,7.76-26.87,14.33-50.5,18.62-80.8,18.47-9.49.03-19.07-.97-28.48-2.31-2.37-.41-7.26-1.34-9.46-1.73-3.12-.68-6.24-1.45-9.35-2.18-15.88-4.22-31.6-10.57-47.39-14.24-13.85-3.31-28.27-4.93-42.54-5.93-4.83-.18-9.67-.42-14.51-.66,0,0-.12-10.51-.12-10.51H.28Z"/>
      <path class="cls-3" d="M.1,122.53c86-1,87.25,30.31,160,24,72.97-6.33,57.46-17.71,106.7-24.02,48.26-6.19,65.52,15.12,103.15,24.8,34.96,8.99,44.74-24.43,84.94-25.1"/>
      <path class="cls-1" d="M.09,192.81c9.08-.32,20.69-.43,29.56.02,2.8.22,8.47.66,11.09.87,2.15.25,8.74,1.13,11.06,1.43,0,0,7.32,1.33,7.32,1.33,14.47,2.71,28.65,7.6,42.78,11.48,23.33,6.26,47.46,7.35,71.71,5.11,14.36-1.37,28.45-3.91,41.32-10.33,8.69-4.48,17.97-9.85,27.79-12.4,4.98-1.27,10.24-2.3,15.3-3,25.31-3.43,52.38-1.8,75.77,9.38,8.76,4.31,20.52,10.25,29.68,13.49,28.29,11.33,37.34-1.56,62.04-12.3,9.25-3.9,19.4-5.83,29.39-5.4,0,0,.02,1.43.02,1.43-4.85.34-9.64,1.19-14.23,2.58-14.42,4.04-25.21,14.11-38.01,21.55-12.3,7.23-25.32,8.18-39,4.75-7.41-1.58-14.81-3.89-21.95-6.36-7.74-2.68-19.44-6.46-27.31-9.06-9.82-3.28-20.03-5.14-30.38-6.15-12.69-.84-25.85-.91-38.41,1.31-9.47,1.76-17.54,5.95-26.73,9.48-4.78,1.71-9.85,3.18-14.84,4.18-12.26,2.52-24.77,3.72-37.23,4.48-4.43.38-10.42.58-14.89.66-1.94.07-5.49.14-7.48.02-12.43-.11-25.16-1.77-37.15-5.02-11.58-3.12-23.75-7.75-35.17-11.27-23.24-7.41-47.51-10.28-72-10.82,0,0-.02-1.43-.02-1.43H.09Z"/>
    </g>
  </g>
</svg>